<?xml version="1.0" encoding="UTF-8"?>
<svg width="240px" height="240px" viewBox="0 0 240 240" version="1.1" xmlns="http://www.w3.org/2000/svg" xmlns:xlink="http://www.w3.org/1999/xlink">
    <title>Artboard</title>
    <g id="Artboard" stroke="none" stroke-width="1" fill="none" fill-rule="evenodd">
        <g id="Group">
            <rect id="Rectangle" fill="#044A76" x="0" y="0" width="240" height="240" rx="52"></rect>
            <path d="M195.879472,75.0482857 C189.594808,63.9264085 179.050559,55.7983287 166.641469,52.5100444 C164.071108,51.8497651 161.451211,51.3968315 158.807362,51.1556662 C149.979697,38.300885 135.323489,30.61 119.654319,30.61 C103.985149,30.61 89.328941,38.300885 80.5012751,51.1556662 C64.9451172,52.623597 51.0851576,61.5264272 43.3592185,75.013558 C35.5902407,88.6634264 34.9005961,105.188899 41.505613,119.430215 C34.9709447,133.649265 35.6595328,150.110719 43.3592185,163.74269 C49.6530927,174.856686 60.1935359,182.981832 72.5972216,186.280931 C75.2204277,186.970636 77.900951,187.423933 80.6061962,187.635309 C89.4131626,200.519962 104.07684,208.235 119.75924,208.235 C135.44164,208.235 150.105317,200.519962 158.912284,187.635309 C174.47446,186.184591 188.341744,177.277056 196.05434,163.777417 C203.851883,150.135655 204.542104,133.596345 197.907946,119.36076 C204.406234,105.117559 203.652285,88.6473638 195.879472,75.0482857 L195.879472,75.0482857 Z M184.074503,82.0697188 C187.839581,88.6553904 189.262557,96.2830177 188.119025,103.749706 C185.558704,101.421144 182.751779,99.3679018 179.746156,97.6250226 C168.667646,91.2019374 155.416299,89.4329364 142.990684,92.718316 C135.434243,94.7131713 128.483192,98.4744341 122.732601,103.680107 C120.608446,90.2554173 127.010714,76.9109419 138.910685,69.9595494 C146.372227,65.5632908 155.327415,64.3084594 163.745463,66.4796158 C172.396669,68.7575605 179.733674,74.3842237 184.074503,82.0697188 Z M119.560892,46.2827941 C126.935548,46.3235047 134.068032,48.9043773 139.743873,53.5859579 C136.433008,54.6439164 133.245534,56.0511341 130.235904,57.7835707 C112.510375,68.309868 103.528858,88.9169671 107.924785,108.973971 C95.5530997,103.978017 87.4718001,92.0137181 87.5012255,78.7375078 C87.4250415,61.0244566 101.745976,46.5726516 119.560892,46.3851749 L119.560892,46.2827941 Z M55.5038523,82.8674969 C59.2558541,76.5407608 65.1241697,71.6246961 72.1514844,68.9212746 C71.3746275,72.2803907 70.9709272,75.7094939 70.9471876,79.1507774 C70.8862897,99.7033646 84.6111655,117.944693 104.915441,124.296984 C101.297895,127.211919 97.0691228,129.340431 92.5182684,130.536981 C84.1378283,132.719352 75.1970395,131.551252 67.7239226,127.297638 C51.7205502,118.202961 46.211069,98.4575693 55.3267499,82.8674969 L55.5038523,82.8674969 Z M55.3440348,156.743398 C51.5719548,150.171784 50.1597074,142.548154 51.3338091,135.095294 C53.8914509,137.413101 56.6862101,139.465814 59.6736591,141.220803 C67.0285041,145.474352 75.4094888,147.721438 83.9479456,147.729155 C88.1665772,147.716143 92.3656511,147.166288 96.4399762,146.093366 C104.001849,144.106033 110.95676,140.343285 116.704037,135.130098 C118.820862,148.556376 112.437245,161.90284 100.556668,168.890003 C93.0901768,173.279266 84.1355649,174.533815 75.7145619,172.370406 C66.9922466,170.163034 59.5689193,164.555214 55.1665911,156.84781 L55.3440348,156.743398 Z M119.882928,192.494026 C112.494,192.448391 105.352789,189.844179 99.6911765,185.130625 C103.007024,184.112428 106.197602,182.728852 109.203277,181.005757 C126.936508,170.490908 135.921928,149.90622 131.524091,129.871029 C145.911023,135.697608 154.204336,150.747296 151.387513,165.916735 C148.570691,181.086175 135.416998,192.211106 119.882928,192.562206 L119.882928,192.494026 Z M180.740459,155.964072 C177.12664,162.31974 171.421219,167.248514 164.581127,169.923725 C165.352114,166.564209 165.744184,163.129965 165.7501,159.684371 C165.798333,139.115475 152.48018,120.862269 132.778186,114.494687 C136.289625,111.576944 140.39436,109.446383 144.811731,108.248681 C152.970019,106.127095 161.645267,107.357391 168.878821,111.661799 C184.31009,120.819841 189.572792,140.521043 180.740459,156.066466 L180.740459,155.964072 Z" id="Shape" fill="#0092FF" fill-rule="nonzero"></path>
        </g>
    </g>
</svg>
