<svg xmlns="http://www.w3.org/2000/svg" viewBox="0 0 166 178">
  <defs/>
  <path fill="#000" fill-rule="nonzero" d="M158.88 44.438c-6.285-11.122-16.83-19.25-29.239-22.538a49.595 49.595 0 00-7.834-1.354C112.98 7.69 98.323 0 82.654 0 66.985 0 52.33 7.69 43.501 20.546 27.945 22.014 14.085 30.916 6.36 44.404A48.489 48.489 0 004.506 88.82a48.695 48.695 0 001.853 44.313c6.294 11.114 16.835 19.239 29.238 22.538a45.408 45.408 0 008.01 1.354c8.806 12.885 23.47 20.6 39.152 20.6 15.683 0 30.346-7.715 39.153-20.6 15.562-1.45 29.43-10.358 37.142-23.858a48.316 48.316 0 001.854-44.416 48.592 48.592 0 00-2.029-44.313zm-11.805 7.022a33.445 33.445 0 014.044 21.68 48.903 48.903 0 00-8.373-6.125c-11.078-6.423-24.33-8.192-36.755-4.907A48.704 48.704 0 0085.733 73.07C83.608 59.645 90.01 46.3 101.91 39.35c7.461-4.397 16.416-5.652 24.834-3.48 8.652 2.278 15.989 7.904 20.33 15.59zM82.56 15.673a32 32 0 0120.183 7.303 48.884 48.884 0 00-9.508 4.198C75.51 37.7 66.529 58.307 70.925 78.364 58.553 73.368 50.472 61.404 50.5 48.128c-.076-17.714 14.245-32.165 32.06-32.353v-.102zM18.504 52.257c3.752-6.326 9.62-11.242 16.647-13.946a46.824 46.824 0 00-1.204 10.23c-.06 20.552 13.664 38.794 33.968 45.146a33.218 33.218 0 01-12.397 6.24c-8.38 2.182-17.321 1.014-24.794-3.24-16.003-9.094-21.513-28.84-12.397-44.43h.177zm-.16 73.876a33.103 33.103 0 01-4.01-21.648 50.542 50.542 0 008.34 6.126 48.593 48.593 0 0024.274 6.508 49.663 49.663 0 0012.492-1.636 48.507 48.507 0 0020.264-10.963c2.117 13.426-4.267 26.773-16.147 33.76-7.467 4.39-16.421 5.644-24.842 3.48-8.723-2.207-16.146-7.815-20.548-15.522l.177-.105zm64.539 35.751a31.87 31.87 0 01-20.192-7.363 46.672 46.672 0 009.512-4.125c17.734-10.515 26.719-31.1 22.321-51.135 14.387 5.827 22.68 20.876 19.864 36.046-2.817 15.17-15.971 26.294-31.505 26.645v-.068zm60.857-36.53a31.974 31.974 0 01-16.159 13.96 46.13 46.13 0 001.17-10.24c.047-20.569-13.27-38.822-32.973-45.19a31.884 31.884 0 0112.034-6.245 31.555 31.555 0 0124.067 3.413c15.431 9.158 20.694 28.859 11.861 44.404v-.102z"/>
</svg>
