<?xml version="1.0" encoding="UTF-8"?>
<svg width="166px" height="178px" viewBox="0 0 166 178" version="1.1" xmlns="http://www.w3.org/2000/svg" xmlns:xlink="http://www.w3.org/1999/xlink">
    <title>Shape Copy</title>
    <g id="Page-1" stroke="none" stroke-width="1" fill="none" fill-rule="evenodd">
        <path d="M158.879472,44.4382857 C152.594808,33.3164085 142.050559,25.1883287 129.641469,21.9000444 C127.071108,21.239765 124.451211,20.7868314 121.807362,20.5456662 C112.979697,7.69088495 98.3234889,0 82.6543188,0 C66.9851486,0 52.328941,7.69088495 43.5012751,20.5456662 C27.9451172,22.013597 14.0851576,30.9164272 6.35921848,44.403558 C-1.40975934,58.0534264 -2.09940388,74.5788986 4.50561302,88.8202152 C-2.0290553,103.039265 -1.3404672,119.500719 6.35921848,133.13269 C12.6530927,144.246686 23.1935359,152.371832 35.5972216,155.670931 C38.2204277,156.360636 40.900951,156.813933 43.6061962,157.025309 C52.4131625,169.909962 67.0768395,177.625 82.7592398,177.625 C98.4416401,177.625 113.105317,169.909962 121.912283,157.025309 C137.47446,155.574591 151.341744,146.667056 159.05434,133.167417 C166.851883,119.525655 167.542104,102.986345 160.907946,88.75076 C167.406234,74.507559 166.652285,58.0373638 158.879472,44.4382857 L158.879472,44.4382857 Z M147.074503,51.4597188 C150.839581,58.0453904 152.262557,65.6730177 151.119025,73.1397058 C148.558704,70.8111437 145.751779,68.7579018 142.746156,67.0150225 C131.667646,60.5919374 118.416299,58.8229364 105.990684,62.108316 C98.4342434,64.1031713 91.4831923,67.864434 85.7326006,73.0701073 C83.6084459,59.6454173 90.0107141,46.3009419 101.910685,39.3495494 C109.372227,34.9532907 118.327415,33.6984594 126.745463,35.8696158 C135.396669,38.1475605 142.733674,43.7742237 147.074503,51.4597188 Z M82.5608915,15.6727941 C89.9355481,15.7135047 97.0680324,18.2943773 102.743873,22.9759579 C99.4330083,24.0339164 96.2455342,25.4411341 93.2359036,27.1735707 C75.5103751,37.699868 66.5288584,58.3069671 70.924785,78.3639706 C58.5530997,73.3680169 50.4718,61.4037181 50.5012255,48.1275077 C50.4250414,30.4144566 64.7459759,15.9626516 82.5608915,15.7751749 L82.5608915,15.6727941 Z M18.5038523,52.2574969 C22.2558541,45.9307607 28.1241697,41.0146961 35.1514844,38.3112746 C34.3746275,41.6703906 33.9709272,45.0994939 33.9471876,48.5407774 C33.8862897,69.0933645 47.6111655,87.3346929 67.9154411,93.6869838 C64.2978948,96.6019192 60.0691227,98.7304309 55.5182684,99.9269806 C47.1378283,102.109352 38.1970395,100.941252 30.7239226,96.6876379 C14.7205502,87.5929607 9.21106898,67.8475693 18.3267499,52.2574969 L18.5038523,52.2574969 Z M18.3440348,126.133398 C14.5719548,119.561784 13.1597074,111.938154 14.3338091,104.485294 C16.8914509,106.803101 19.6862101,108.855814 22.673659,110.610803 C30.0285041,114.864352 38.4094888,117.111438 46.9479456,117.119155 C51.1665772,117.106143 55.3656511,116.556288 59.4399762,115.483366 C67.0018494,113.496033 73.9567601,109.733285 79.7040372,104.520098 C81.8208615,117.946376 75.4372447,131.29284 63.5566682,138.280003 C56.0901768,142.669266 47.1355649,143.923815 38.7145619,141.760405 C29.9922465,139.553034 22.5689193,133.945214 18.1665911,126.23781 L18.3440348,126.133398 Z M82.8829279,161.884026 C75.4939999,161.838391 68.352789,159.234179 62.6911764,154.520625 C66.0070243,153.502428 69.1976015,152.118852 72.2032771,150.395757 C89.936508,139.880908 98.9219276,119.29622 94.5240907,99.2610294 C108.911023,105.087608 117.204336,120.137296 114.387513,135.306735 C111.570691,150.476175 98.4169975,161.601106 82.8829279,161.952206 L82.8829279,161.884026 Z M143.740459,125.354072 C140.12664,131.70974 134.421219,136.638514 127.581127,139.313725 C128.352114,135.954209 128.744184,132.519965 128.7501,129.074371 C128.798333,108.505475 115.48018,90.2522691 95.7781863,83.8846869 C99.2896245,80.9669443 103.39436,78.8363828 107.811731,77.6386807 C115.970018,75.5170946 124.645267,76.747391 131.878821,81.0517988 C147.31009,90.2098405 152.572792,109.911043 143.740459,125.456466 L143.740459,125.354072 Z" id="Shape-Copy" fill="#000000" fill-rule="nonzero"></path>
    </g>
</svg>